<svg class="icon" viewBox="0 0 1024 1024" xmlns="http://www.w3.org/2000/svg" width="200" height="200"><defs><style/></defs><path d="M882.586 377.242l-404.07 404.172c-9.422 9.421-20.788 14.132-34.202 14.132-12.903 0-24.064-4.71-33.485-14.132L141.312 512c-8.909-8.909-13.414-20.07-13.414-33.485 0-13.926 4.505-25.293 13.414-34.201l67.686-66.97c9.421-9.42 20.583-14.131 33.485-14.131s24.064 4.71 33.485 14.131l168.243 168.243 303.616-302.899c9.421-9.42 20.583-14.131 33.485-14.131 12.902 0 24.064 4.71 33.485 14.131l67.686 66.97c8.909 8.908 13.415 20.377 13.415 34.201.102 13.312-4.301 24.474-13.312 33.383z" fill="#fff"/></svg>